<svg version="1.1" id="Layer_1" xmlns:x="ns_extend;" xmlns:i="ns_ai;" xmlns:graph="ns_graphs;" xmlns="http://www.w3.org/2000/svg" xmlns:xlink="http://www.w3.org/1999/xlink" x="0px" y="0px" viewBox="0 0 70.6 77.7" style="enable-background:new 0 0 70.6 77.7;" xml:space="preserve">
 <style type="text/css">
  .st0{fill:#00CCBC;}
 </style>
 <metadata>
  <sfw xmlns="ns_sfw;">
   <slices>
   </slices>
   <sliceSourceBounds bottomLeftOrigin="true" height="77.7" width="70.6" x="-1.9" y="59.5">
   </sliceSourceBounds>
  </sfw>
 </metadata>
 <path class="st0" d="M50.9,0l-3.6,34.3L41.1,5.4L21.7,9.5l6.2,28.9L0,44.3l4.9,23.1L54,77.7l11.2-25.1l5.3-50.6L50.9,0L50.9,0
	L50.9,0z M35.4,49.7c-1,0.9-2.3,0.8-3.8,0.4c-1.4-0.5-2-2.2-1.5-4.2c0.4-1.5,2.3-1.8,3.2-1.8c0.4,0,0.7,0.1,1,0.2
	c0.7,0.3,1.8,0.9,2,1.9C36.7,47.6,36.4,48.8,35.4,49.7L35.4,49.7L35.4,49.7L35.4,49.7z M49.6,51.3c-0.7,1.3-2.7,1.4-4.6,0.5
	c-1.3-0.6-1.3-2.2-1.1-3.2c0.1-0.5,0.3-1,0.6-1.4c0.5-0.6,1.2-1.3,2.1-1.3c1.4,0,2.7,0.6,3.4,1.8C50.7,48.7,50.3,50,49.6,51.3
	L49.6,51.3z">
 </path>
</svg>