<svg xmlns="http://www.w3.org/2000/svg" width="160" height="45" viewBox="0 0 160 45" fill="none">
<g clip-path="url(#clip0_14538_73627)">
<path d="M22.0416 0.0831909C9.86806 0.0831909 0 9.95125 0 22.1248C0 34.2983 9.86806 44.1664 22.0416 44.1664C34.2151 44.1664 44.0832 34.2983 44.0832 22.1248C44.0832 9.95125 34.2151 0.0831909 22.0416 0.0831909ZM41.4163 18.6255C41.4163 23.6855 37.3146 27.7871 32.2546 27.7871C27.1947 27.7871 23.093 23.6855 23.093 18.6255C23.093 13.5655 27.1947 9.46387 32.2546 9.46387C37.3146 9.46387 41.4163 13.5655 41.4163 18.6255ZM22.0416 2.18193C27.5739 2.18193 32.5805 4.43538 36.1934 8.07292C34.9667 7.61429 33.6387 7.36376 32.2533 7.36376H8.63044C12.1722 4.14377 16.8776 2.18056 22.0416 2.18056V2.18193ZM20.9915 18.6255V42.0389C14.3257 41.6939 8.5264 38.0741 5.16814 32.7595L21.1408 16.7869C21.0422 17.3852 20.9915 17.9999 20.9915 18.6255ZM4.10576 30.8538C2.82023 28.217 2.09874 25.2558 2.09874 22.1248C2.09874 17.3181 3.79909 12.9084 6.63164 9.46387H25.7024C25.1096 9.88827 24.5606 10.3674 24.0623 10.8959L4.10576 30.8538ZM23.0916 42.0402V25.175C23.5557 25.8226 24.0869 26.4195 24.6743 26.9548L35.0023 37.2828C31.7645 40.0538 27.6286 41.8048 23.0916 42.0402ZM36.5233 35.8357L30.427 29.7394C31.0211 29.8366 31.6304 29.8872 32.2519 29.8872C36.3029 29.8872 39.8556 27.7474 41.8393 24.537C41.315 28.8906 39.3874 32.8115 36.5233 35.8357ZM61.1058 28.5593C59.4274 28.5593 57.749 27.9501 56.6428 26.4386L58.2473 24.9628C59.1139 26.0142 60.2392 26.5482 61.2537 26.5482C62.5625 26.5482 63.3935 25.8102 63.3935 24.8327C63.3935 23.7074 62.3243 23.3022 61.2907 23.0064C58.9674 22.3425 57.1041 21.5306 57.1041 19.2073C57.1041 17.0128 58.9674 15.4452 61.4194 15.4452C62.9499 15.4452 64.3518 15.9983 65.4033 17.2715L63.7618 18.7843C63.0061 17.8616 62.212 17.4755 61.3646 17.4755C60.1475 17.4755 59.3548 18.2134 59.3548 19.117C59.3548 20.1684 60.3323 20.5189 61.3098 20.8132C63.6331 21.4403 65.6251 22.159 65.6251 24.7232C65.6251 26.9178 63.9096 28.5593 61.1072 28.5593H61.1058ZM71.3572 28.5784C68.6274 28.5784 66.7833 26.5317 66.7833 23.7101C66.7833 20.8885 68.6274 18.8048 71.3572 18.8048C74.1049 18.8048 75.6916 20.6489 75.6916 23.5075C75.6916 23.7841 75.6725 24.0236 75.6547 24.3002H68.8314C69.034 25.7021 69.9937 26.7343 71.3942 26.7343C72.4634 26.7343 73.2753 26.1812 73.7366 25.1846L75.5068 26.0334C74.695 27.7118 73.2205 28.5784 71.3572 28.5784ZM68.9053 22.6957H73.6819C73.4601 21.4416 72.6866 20.6298 71.3586 20.6298C70.0306 20.6298 69.2188 21.4786 68.9053 22.6957ZM79.6112 28.3197L75.923 19.1362V19.0992H78.1354L80.6434 25.9047L83.1515 19.0992H85.3639V19.1362L81.6565 28.3197H79.6098H79.6112ZM90.1775 28.5784C87.4476 28.5784 85.6035 26.5317 85.6035 23.7101C85.6035 20.8885 87.4476 18.8048 90.1775 18.8048C92.9251 18.8048 94.5118 20.6489 94.5118 23.5075C94.5118 23.7841 94.4927 24.0236 94.4749 24.3002H87.6516C87.8542 25.7021 88.8139 26.7343 90.2144 26.7343C91.2837 26.7343 92.0955 26.1812 92.5569 25.1846L94.327 26.0334C93.5152 27.7118 92.0407 28.5784 90.1775 28.5784ZM87.7255 22.6957H92.5021C92.2803 21.4416 91.5068 20.6298 90.1788 20.6298C88.907 20.6298 88.0404 21.4786 87.7269 22.6957H87.7255ZM96.0424 28.3019V19.0992H98.1083C98.1083 19.6345 98.1083 20.0219 98.0714 20.5381L98.2001 20.5559C98.8093 19.4497 99.8224 18.8774 101.039 18.8774C103.216 18.8774 104.266 20.371 104.266 22.5286V28.3005H102.163V23.0626C102.163 21.6607 101.536 20.7763 100.208 20.7763C98.8805 20.7763 98.1426 21.8085 98.1426 23.1187V28.3005H96.0397L96.0424 28.3019ZM106.439 28.3019V15.7437H111.27C113.613 15.7437 115.272 17.1456 115.272 19.4141C115.272 21.5169 113.759 22.8079 111.658 22.9736L116.415 28.2293V28.3033H113.613L108.67 22.697H108.651V28.3033H106.439V28.3019ZM111.105 17.6234H108.651V21.3116H111.105C112.285 21.3116 113.06 20.5928 113.06 19.4483C113.06 18.3038 112.267 17.622 111.105 17.622V17.6234ZM121.304 28.5784C118.502 28.5784 116.601 26.5126 116.601 23.691C116.601 20.8694 118.5 18.8035 121.304 18.8035C124.108 18.8035 125.988 20.8502 125.988 23.6718C125.988 26.4934 124.089 28.5771 121.304 28.5771V28.5784ZM121.304 26.7152C122.909 26.7152 123.904 25.3694 123.904 23.6718C123.904 21.9742 122.909 20.6654 121.304 20.6654C119.699 20.6654 118.685 21.9933 118.685 23.6896C118.685 25.368 119.68 26.7138 121.304 26.7138V26.7152ZM131.876 28.5784C129.073 28.5784 127.173 26.5126 127.173 23.691C127.173 20.8694 129.072 18.8035 131.876 18.8035C134.66 18.8035 136.561 20.8502 136.561 23.6718C136.561 26.4934 134.662 28.5771 131.877 28.5771L131.876 28.5784ZM131.876 26.7152C133.48 26.7152 134.476 25.3694 134.476 23.6718C134.476 21.9933 133.48 20.6654 131.876 20.6654C130.253 20.6654 129.257 21.9933 129.257 23.6896C129.257 25.3858 130.252 26.7138 131.876 26.7138V26.7152ZM138.224 28.3019V19.0992H140.29C140.29 19.6345 140.29 20.0028 140.253 20.5381L140.382 20.5559C140.972 19.4866 141.875 18.8774 143.075 18.8774C144.346 18.8774 145.232 19.5044 145.602 20.5737H145.75C146.359 19.4675 147.354 18.8774 148.571 18.8774C150.784 18.8774 151.687 20.4628 151.687 22.5848V28.3019H149.584V22.9544C149.584 21.6456 149.031 20.7598 147.851 20.7598C146.671 20.7598 146.007 21.7182 146.007 22.9544V28.3019H143.923V22.9544C143.923 21.6456 143.333 20.7598 142.208 20.7598C141.028 20.7598 140.327 21.7551 140.327 22.9914V28.3019H138.224ZM156.514 28.5784C155.132 28.5784 153.858 27.9884 153.047 26.9931L154.486 25.7021C155.058 26.403 155.777 26.8274 156.606 26.8274C157.455 26.8274 158.063 26.4222 158.063 25.7213C158.063 24.9833 157.307 24.7629 156.44 24.5411C154.928 24.1167 153.49 23.4719 153.49 21.6456C153.49 19.8932 154.966 18.8062 156.81 18.8062C158.009 18.8062 159.023 19.2306 159.797 20.0972L158.415 21.406C157.953 20.8338 157.419 20.5394 156.792 20.5394C155.98 20.5394 155.427 20.9447 155.427 21.6086C155.427 22.3096 156.146 22.5122 157.014 22.7518C158.563 23.1762 160.001 23.7293 160.001 25.6282C160.001 27.4175 158.508 28.5784 156.516 28.5784H156.514Z" fill="white"/>
</g>
<defs>
<clipPath id="clip0_14538_73627">
<rect width="160" height="44.0832" fill="white" transform="translate(0 0.0831909)"/>
</clipPath>
</defs>
</svg>
