<?xml version="1.0" encoding="utf-8"?>
<!-- Generator: Adobe Illustrator 25.3.1, SVG Export Plug-In . SVG Version: 6.00 Build 0)  -->
<svg version="1.1" id="Layer_1" xmlns="http://www.w3.org/2000/svg" xmlns:xlink="http://www.w3.org/1999/xlink" x="0px" y="0px"
	 viewBox="0 0 1882 572" style="enable-background:new 0 0 1882 572;" xml:space="preserve">
<style type="text/css">
	.st0{fill:#231F20;}
	.st1{fill:#FFFFFF;}
</style>
<g>
	<g>
		<path class="st0" d="M376.6,338.7c4.3-23.3,14.1-42.2,30.1-56.4c16-14.2,34.8-21.5,56.3-21.1c21.5,0.4,39.9,7.8,55.1,22
			c15.3,14.2,25,32.7,29.3,55.5H376.6z M539.7,399.8c-15.3,35.3-40.3,53.4-75.5,53.8c-22.7,0.4-42.2-7.7-59.1-23.7
			c-16.8-15.9-26.2-36.6-28.5-61.1h200.2v-17.7c0-30.6-10.6-58.1-31.7-82.7c-21.9-25-47.7-38.3-77.4-40.5
			c-33.2-2.2-61.8,10.3-86.4,37c-24.2,26.3-36,58.1-35.2,94.7c0.4,34.9,12.5,64.6,36,90c23.5,25,50.5,37,81,36.6
			c24.2-0.4,46.2-8.2,66.1-23.7c19.9-15.5,34-36.6,42.2-62.9H539.7z"/>
		<path class="st0" d="M634,338.7c4.3-23.3,14.1-42.2,30.1-56.4c16-14.2,34.8-21.5,56.3-21.1c21.5,0.4,39.9,7.8,55.1,22
			c15.3,14.2,25,32.7,29.3,55.5H634z M797.1,399.8c-15.3,35.3-40.3,53.4-75.5,53.8c-22.7,0.4-42.2-7.7-59.1-23.7
			c-16.8-15.9-26.2-36.6-28.6-61.1h200.2v-17.7c0-30.6-10.6-58.1-31.7-82.7c-21.9-25-47.7-38.3-77.4-40.5
			c-33.2-2.2-61.8,10.3-86.4,37c-24.2,26.3-36,58.1-35.2,94.7c0.4,34.9,12.5,64.6,36,90c23.5,25,50.5,37,81,36.6
			c24.2-0.4,46.2-8.2,66.1-23.7c19.9-15.5,34-36.6,42.2-62.9H797.1z"/>
		<rect x="876.4" y="148.4" class="st0" width="33.9" height="332"/>
		<path class="st0" d="M1012.4,234.9h-33.5v245.4h33.5V234.9z"/>
		<polygon class="st0" points="1272.2,234.9 1239.4,234.9 1163.9,437.3 1088,234.9 1056.7,234.9 1148.3,480.3 1179.2,480.3 		"/>
		<path class="st0" d="M1312.1,338.7c4.3-23.3,14.1-42.2,30.1-56.4c16-14.2,34.8-21.5,56.3-21.1c21.5,0.4,39.9,7.8,55.1,22
			c15.3,14.2,25,32.7,29.3,55.5H1312.1z M1475.2,399.8c-15.3,35.3-40.3,53.4-75.5,53.8c-22.7,0.4-42.2-7.7-59.1-23.7
			c-16.8-15.9-26.2-36.6-28.5-61.1h200.2v-17.7c0-30.6-10.6-58.1-31.7-82.7c-21.9-25-47.7-38.3-77.4-40.5
			c-33.2-2.2-61.8,10.3-86.4,37c-24.2,26.3-36,58.1-35.2,94.7c0.4,34.9,12.5,64.6,36,90c23.5,25,50.5,37,81,36.6
			c24.2-0.4,46.2-8.2,66.1-23.7c19.9-15.5,34-36.6,42.2-62.9H1475.2z"/>
		<path class="st0" d="M1583.5,333.5c0-15.9,2.3-28.4,7.4-37.9c3.1-5.6,9-12.5,17.6-20.2c8.6-7.8,19.9-12.1,33.6-12.5v-32.7
			c-11.7-0.4-23.1,2.6-34.4,9c-12.1,7.3-21.5,17.2-27.8,30.6v-34.9h-31.9v245.4h35.5V333.5z"/>
		<polygon class="st0" points="1875.3,234.9 1844,234.9 1768.9,429.5 1697.7,234.9 1665.3,234.9 1750.5,472.6 1716.9,566 1749,566 
					"/>
	</g>
	<g>
		<g>
			<path class="st1" d="M164.8,196.3c-18.8,0-81.1,0-81.1,0L10,4.3c0,0,0,304.1,0,346.9C10,436.7,79.3,506,164.8,506
				c85.5,0,154.8-69.3,154.8-154.8C319.7,265.7,250.4,196.3,164.8,196.3z M166.2,434.1c-45.5,0-82.5-36.9-82.5-82.5
				c0-21.4,0-82.5,0-82.5s58.3,0,82.5,0c45.6,0,82.5,36.9,82.5,82.5C248.6,397.2,211.7,434.1,166.2,434.1z"/>
		</g>
	</g>
	<path class="st0" d="M1020,177.6c0,13.4-10.9,24.3-24.3,24.3c-13.4,0-24.3-10.9-24.3-24.3c0-13.4,10.9-24.3,24.3-24.3
		C1009.1,153.3,1020,164.1,1020,177.6z"/>
</g>
</svg>
