<svg width="1963" height="423" viewBox="0 0 1963 423" fill="none" xmlns="http://www.w3.org/2000/svg">
<path d="M0 173.654C0 163.398 0 153.112 0 142.765C0.0500637 123.062 4.01374 103.561 11.6652 85.3733C21.6805 60.5546 40.5491 40.2416 64.689 28.2907C76.414 22.5587 89.099 18.9994 102.118 17.7885C125.831 15.6451 149.708 19.4481 171.548 28.8467C184.523 34.1596 197.061 40.6154 209.756 46.6387C232.494 57.388 255.232 68.2609 277.969 79.072C278.934 79.6237 280.123 79.6237 281.088 79.072C312.809 63.9056 344.655 48.8627 376.375 33.789C389.794 27.2043 404.038 22.4158 418.732 19.5492C442.112 14.6731 466.43 16.8244 488.567 25.727C509.083 34.271 526.374 48.9749 538.004 67.7667C547.534 82.9889 553.838 99.9721 556.531 117.683C558.092 127.325 558.864 137.077 558.839 146.842C558.839 164.572 558.839 182.302 558.839 200.033C559.115 218.414 556.171 236.703 550.137 254.088C542.921 275.516 529.249 294.241 510.962 307.742C497.681 317.35 482.25 323.634 465.985 326.059C441.626 329.858 418.264 325.75 395.526 316.947C385.076 312.565 374.863 307.647 364.928 302.213L281.307 258.968C280.259 258.276 278.893 258.276 277.845 258.968C244.44 276.235 211.159 293.533 177.786 310.584C162.371 318.579 145.678 323.877 128.442 326.244C102.773 329.673 78.5376 326.028 55.8933 312.869C38.1164 302.324 23.8636 286.834 14.909 268.328C7.98684 254.394 3.51449 239.394 1.68428 223.971C0.63007 215.776 0.119531 207.522 0.155952 199.26C0.155952 190.889 0.155952 182.302 0.155952 173.684L0 173.654ZM322.291 103.196C328.112 107.378 333.291 112.372 337.668 118.023C351.973 136.286 358.002 159.601 354.324 182.426C351.648 203.173 340.906 222.067 324.381 235.091C322.915 236.234 322.915 236.234 324.661 237.13C346.869 248.621 369.17 260.05 391.378 271.54C399.387 275.883 407.73 279.591 416.33 282.629C429.666 287.457 443.963 289.108 458.063 287.448C479.234 284.921 497.698 272.011 507.188 253.1C514.712 238.788 518.669 222.901 518.728 206.766C519.103 189.191 518.728 171.615 518.728 154.039C518.728 147.861 518.729 141.992 518.448 136.062C517.718 123.084 514.611 110.346 509.278 98.4701C504.603 87.8526 497.414 78.5074 488.318 71.2262C472.473 58.8707 454.258 55.1022 434.608 56.9865C421.244 58.3985 408.237 62.1314 396.181 68.0138C377.28 76.9509 358.368 85.9087 339.446 94.887C333.894 97.6979 328.217 100.385 322.291 103.196ZM235.675 236.451C235.082 235.987 234.677 235.617 234.209 235.215C228.095 230.495 222.741 224.881 218.333 218.566C205.591 200.526 200.517 178.251 204.204 156.541C207.076 135.756 218.047 116.908 234.771 104.03C236.174 102.949 236.174 102.949 234.552 102.208C220.173 95.5666 205.857 88.5857 191.198 81.7284C179.345 76.1684 167.836 70.0833 155.672 65.2029C139.695 58.239 122.163 55.5138 104.8 57.2953C93.5785 58.5128 82.8496 62.5184 73.6095 68.9404C59.7663 78.9009 49.7131 93.1875 45.0702 109.497C41.3653 121.631 39.5767 134.26 39.7678 146.935V197.191C39.6994 203.545 39.991 209.897 40.6412 216.218C41.8237 229.165 45.5535 241.757 51.6202 253.285C56.8802 263.335 64.6959 271.852 74.2957 277.996C89.2671 287.51 105.798 289.641 123.171 287.263C136.45 285.347 149.293 281.167 161.13 274.907C175.103 267.772 189.201 260.513 203.019 253.285C213.873 247.632 224.571 242.072 235.675 236.451ZM279.342 128.525C277.25 128.502 275.161 128.678 273.104 129.05C262.764 131.143 253.909 137.702 248.962 146.935C239.313 163.395 241.004 184.06 253.204 198.766C259.248 206.493 268.537 211.047 278.406 211.122C290.121 211.423 301.117 205.543 307.288 195.677C318.945 179.027 318.08 156.75 305.167 141.035C298.907 133.218 289.416 128.621 279.342 128.525Z" fill="#00B7F0"/>
<path d="M715.573 232.403C725.535 232.403 730.516 226.094 730.516 216.796V147.065H754.091L812.865 219.12C820.17 228.75 826.147 232.403 835.113 232.403C849.391 232.403 856.696 220.449 855.036 218.456L792.278 143.744C796.926 143.412 801.575 142.748 805.892 141.752C838.765 134.779 856.364 112.863 856.364 80.6537C856.364 38.1508 828.472 16.2352 776.007 16.2352H714.909C703.951 16.2352 696.646 23.8724 696.646 35.4943V214.804C696.646 226.093 701.627 232.403 710.924 232.403H715.573ZM775.343 120.168H730.183V44.4598H774.347C805.892 44.4598 821.83 57.4099 821.83 82.314C821.83 105.558 806.888 120.168 775.343 120.168ZM964.282 235.391C986.197 235.391 1003.13 229.746 1014.75 222.441C1026.38 215.136 1032.35 206.17 1032.35 199.197C1032.35 185.251 1015.75 182.262 1015.09 182.926C1006.78 197.205 992.838 209.491 964.946 209.491C936.721 209.491 915.802 192.224 911.153 165.992C910.821 163.999 910.489 162.007 910.489 160.015H1028.37C1036.01 160.015 1038.33 157.358 1038.33 150.385V147.729C1038.33 99.9129 1007.78 67.3715 961.625 67.3715C914.474 67.3715 879.94 103.565 879.94 152.045C879.94 201.854 913.809 235.391 964.282 235.391ZM1006.45 137.767H910.821C914.806 111.203 935.061 92.2756 961.293 92.2756C987.858 92.2756 1004.79 110.207 1006.45 137.767ZM1124.66 235.059C1165.84 235.059 1191.07 215.468 1191.07 184.919C1191.07 150.385 1156.87 143.08 1132.3 137.767C1106.4 132.122 1092.45 128.802 1092.45 114.191C1092.45 100.909 1104.41 92.2756 1126.99 92.2756C1147.24 92.2756 1163.85 101.573 1173.81 114.855C1174.47 115.851 1187.09 109.874 1187.09 99.5808C1187.09 95.9282 1185.76 91.9436 1183.11 88.291C1175.47 77.0011 1156.21 67.3715 1125.66 67.3715C1086.81 67.3715 1061.91 87.6269 1061.91 117.512C1061.91 151.381 1094.45 158.686 1118.02 163.667C1144.26 169.312 1159.2 172.301 1159.2 188.571C1159.2 201.854 1146.58 210.155 1124 210.155C1098.76 210.155 1080.83 199.861 1070.21 186.247C1069.21 185.583 1057.26 190.896 1057.26 201.189C1057.26 207.831 1061.57 215.136 1069.87 221.113C1081.16 229.082 1099.43 235.059 1124.66 235.059ZM1294.68 231.074C1368.39 231.074 1412.89 190.232 1412.89 123.157C1412.89 56.0817 1369.39 16.2352 1296.34 16.2352H1243.87C1233.58 16.2352 1225.61 23.8724 1225.61 35.4943V212.147C1225.61 222.441 1233.91 231.074 1244.54 231.074H1294.68ZM1295.34 201.521H1259.48V45.788H1295.67C1347.47 45.788 1378.35 74.6767 1378.35 123.489C1378.35 172.965 1347.8 201.521 1295.34 201.521ZM1466.02 39.1469C1478.63 39.1469 1485.61 32.1738 1485.61 20.2198C1485.61 8.26589 1478.63 0.960693 1466.35 0.960693C1453.73 0.960693 1446.42 8.26589 1446.42 20.2198C1446.42 31.8417 1453.73 39.1469 1466.02 39.1469ZM1467.34 232.403C1475.98 232.403 1481.95 228.75 1481.95 216.796V85.6345C1481.95 73.3485 1475.98 69.6959 1467.34 69.6959H1464.02C1455.39 69.6959 1449.08 73.6806 1449.08 85.6345V216.796C1449.08 228.75 1455.39 232.403 1464.02 232.403H1467.34ZM1569.28 234.727C1593.52 234.727 1614.44 224.433 1626.73 207.166C1626.73 211.483 1627.39 215.136 1628.06 218.124C1630.71 228.75 1638.02 232.735 1646.99 232.735C1652.96 232.735 1658.94 230.742 1658.94 229.082V131.126C1658.94 90.6154 1634.37 67.3715 1589.21 67.3715C1561.98 67.3715 1542.72 75.6729 1531.76 85.6345C1524.46 92.2756 1520.8 99.5808 1520.8 105.558C1520.8 121.496 1541.06 121.828 1541.06 121.496C1548.37 106.886 1562.64 94.2679 1586.88 94.2679C1612.45 94.2679 1626.4 107.55 1626.4 131.79V135.111H1622.08C1550.03 136.439 1514.83 152.377 1514.83 189.235C1514.83 216.464 1535.08 234.727 1569.28 234.727ZM1577.25 211.151C1558.33 211.151 1547.04 202.186 1547.04 187.907C1547.04 166.324 1570.94 157.69 1617.43 156.03L1626.4 155.698V167.984C1626.4 193.22 1605.81 211.151 1577.25 211.151ZM1705.34 232.403C1713.64 232.403 1719.95 228.75 1719.95 216.796V160.679C1719.95 123.821 1730.25 98.5846 1756.15 98.5846C1765.11 98.5846 1771.42 101.573 1776.4 105.558C1777.07 106.222 1786.36 101.241 1786.36 88.623C1786.36 75.3408 1776.73 67.3715 1760.13 67.3715C1739.87 67.3715 1726.59 77.9973 1719.62 97.5885C1719.62 92.9397 1718.96 88.9551 1718.29 85.6345C1714.97 73.0165 1706.67 69.6959 1699.03 69.6959C1692.39 69.6959 1687.08 72.3524 1687.08 73.3485V216.796C1687.08 228.75 1693.06 232.403 1701.69 232.403H1705.34ZM1867.14 295.825C1874.77 295.825 1882.08 291.84 1887.39 277.562L1962.77 78.6614C1963.43 77.0011 1954.47 69.6959 1945.5 69.6959C1936.87 69.6959 1929.56 74.3447 1924.91 88.9551L1886.73 198.533L1843.56 88.291C1838.25 74.0126 1831.94 69.6959 1822.64 69.6959C1812.02 69.6959 1804.71 77.3332 1805.38 79.3255L1862.49 212.811C1865.14 219.452 1869.13 221.445 1876.43 222.109L1849.87 286.859C1849.21 288.52 1857.84 295.825 1867.14 295.825Z" fill="white"/>
<path d="M922.077 326.311C915.44 326.311 911.209 322.81 911.209 316.61C911.209 308.805 917.847 303.262 936.957 300.563V298.813C936.957 293.999 934.404 291.665 929.663 291.665C923.828 291.665 919.524 294.218 915.732 297.5L912.449 293.561C916.899 289.477 922.661 286.413 930.319 286.413C939.51 286.413 943.157 291.227 943.157 299.25V316.245C943.157 320.913 943.448 323.758 944.251 325.727H937.832C937.321 324.123 936.957 322.591 936.957 320.403C932.653 324.414 927.839 326.311 922.077 326.311ZM923.901 321.351C929.006 321.351 933.383 319.236 936.957 315.735V304.94C922.296 307.274 917.409 310.848 917.409 315.662C917.409 319.382 919.889 321.351 923.901 321.351ZM968.812 326.53C959.913 326.53 951.671 319.673 951.671 306.471C951.671 292.394 960.715 286.413 969.322 286.413C978.002 286.413 982.087 291.519 984.421 297.208L979.096 299.396C977.2 294.437 974.209 291.738 969.176 291.738C963.633 291.738 958.017 295.604 958.017 306.471C958.017 315.953 962.539 321.278 969.03 321.278C973.917 321.278 976.908 319.163 979.388 313.547L984.566 315.589C981.576 322.007 977.127 326.53 968.812 326.53ZM1007.28 326.53C998.377 326.53 990.135 319.673 990.135 306.471C990.135 292.394 999.179 286.413 1007.79 286.413C1016.47 286.413 1020.55 291.519 1022.88 297.208L1017.56 299.396C1015.66 294.437 1012.67 291.738 1007.64 291.738C1002.1 291.738 996.481 295.604 996.481 306.471C996.481 315.953 1001 321.278 1007.49 321.278C1012.38 321.278 1015.37 319.163 1017.85 313.547L1023.03 315.589C1020.04 322.007 1015.59 326.53 1007.28 326.53ZM1046.03 326.53C1036.91 326.53 1028.6 319.892 1028.6 306.471C1028.6 292.467 1037.93 286.413 1046.03 286.413C1055.15 286.413 1062.08 292.832 1062.08 306.763V308.076H1034.87C1035.09 316.756 1040.12 321.424 1046.47 321.424C1052.01 321.424 1055.15 319.163 1058.07 315.151L1061.71 318.36C1058.14 323.466 1053.25 326.53 1046.03 326.53ZM1035.02 303.189H1056.1C1055.59 296.333 1052.3 291.665 1045.96 291.665C1040.78 291.665 1035.89 295.239 1035.02 303.189ZM1083.3 326.457C1076.37 326.457 1070.68 323.685 1067.55 319.892L1071.34 316.099C1074.26 319.236 1078.12 321.424 1083.38 321.424C1089.36 321.424 1092.64 319.309 1092.64 315.37C1092.64 311.504 1089.28 310.045 1082.72 308.514C1074.55 306.544 1068.93 304.356 1068.93 296.916C1068.93 291.081 1074.04 286.413 1082.43 286.413C1089.21 286.413 1093.59 288.601 1097.16 291.957L1093.88 296.114C1090.96 293.415 1087.02 291.519 1082.72 291.519C1077.1 291.519 1074.91 293.999 1074.91 296.698C1074.91 300.272 1077.98 301.585 1084.03 302.97C1092.71 305.086 1098.69 307.201 1098.69 315.151C1098.69 322.518 1092.05 326.457 1083.3 326.457ZM1119.91 326.457C1112.99 326.457 1107.3 323.685 1104.16 319.892L1107.95 316.099C1110.87 319.236 1114.74 321.424 1119.99 321.424C1125.97 321.424 1129.25 319.309 1129.25 315.37C1129.25 311.504 1125.9 310.045 1119.33 308.514C1111.16 306.544 1105.55 304.356 1105.55 296.916C1105.55 291.081 1110.65 286.413 1119.04 286.413C1125.82 286.413 1130.2 288.601 1133.77 291.957L1130.49 296.114C1127.57 293.415 1123.63 291.519 1119.33 291.519C1113.71 291.519 1111.53 293.999 1111.53 296.698C1111.53 300.272 1114.59 301.585 1120.64 302.97C1129.32 305.086 1135.3 307.201 1135.3 315.151C1135.3 322.518 1128.67 326.457 1119.91 326.457Z" fill="white"/>
<path d="M897.77 307.291L864.837 278.318C857.929 272.257 849.075 268.727 839.215 268.727C817.954 268.727 800.582 285.978 800.582 307.091C800.582 328.204 817.954 345.455 839.215 345.455C849.075 345.455 857.929 341.725 864.837 335.864L897.77 307.291ZM812.185 307.291C812.185 292.638 824.191 280.45 839.215 280.45C853.971 280.45 866.246 292.372 866.246 307.291C866.246 321.944 854.24 334.132 839.215 334.132C824.46 333.932 812.185 321.944 812.185 307.291Z" fill="#E5173F"/>
<path d="M1181.06 326.513C1177.46 326.513 1174.34 325.813 1171.7 324.413C1169.06 323.013 1167.02 320.867 1165.6 317.975C1164.18 315.083 1163.47 311.411 1163.47 306.958C1163.47 302.322 1164.25 298.535 1165.81 295.597C1167.37 292.659 1169.53 290.49 1172.28 289.09C1175.06 287.69 1178.24 286.99 1181.82 286.99C1184.09 286.99 1186.14 287.22 1187.98 287.679C1189.84 288.115 1191.41 288.654 1192.7 289.297L1190.29 295.769C1188.89 295.195 1187.45 294.713 1185.98 294.323C1184.51 293.933 1183.1 293.738 1181.75 293.738C1179.52 293.738 1177.66 294.231 1176.17 295.218C1174.7 296.205 1173.6 297.674 1172.87 299.625C1172.15 301.576 1171.8 303.997 1171.8 306.889C1171.8 309.689 1172.17 312.053 1172.9 313.981C1173.64 315.886 1174.73 317.332 1176.17 318.319C1177.62 319.283 1179.4 319.765 1181.51 319.765C1183.6 319.765 1185.47 319.513 1187.12 319.008C1188.77 318.503 1190.33 317.849 1191.8 317.045V324.068C1190.36 324.895 1188.81 325.503 1187.15 325.893C1185.5 326.306 1183.47 326.513 1181.06 326.513ZM1231.67 306.683C1231.67 309.85 1231.26 312.661 1230.43 315.117C1229.61 317.573 1228.4 319.65 1226.82 321.349C1225.23 323.024 1223.33 324.309 1221.1 325.205C1218.88 326.077 1216.36 326.513 1213.56 326.513C1210.95 326.513 1208.55 326.077 1206.37 325.205C1204.19 324.309 1202.29 323.024 1200.69 321.349C1199.1 319.65 1197.87 317.573 1197 315.117C1196.13 312.661 1195.69 309.85 1195.69 306.683C1195.69 302.482 1196.42 298.925 1197.86 296.01C1199.33 293.072 1201.42 290.834 1204.13 289.297C1206.84 287.759 1210.06 286.99 1213.8 286.99C1217.31 286.99 1220.41 287.759 1223.1 289.297C1225.78 290.834 1227.88 293.072 1229.4 296.01C1230.91 298.948 1231.67 302.505 1231.67 306.683ZM1204.03 306.683C1204.03 309.46 1204.36 311.835 1205.02 313.809C1205.71 315.783 1206.77 317.298 1208.19 318.354C1209.61 319.386 1211.45 319.903 1213.7 319.903C1215.95 319.903 1217.79 319.386 1219.21 318.354C1220.63 317.298 1221.68 315.783 1222.34 313.809C1223.01 311.835 1223.34 309.46 1223.34 306.683C1223.34 303.905 1223.01 301.553 1222.34 299.625C1221.68 297.674 1220.63 296.194 1219.21 295.184C1217.79 294.151 1215.94 293.635 1213.67 293.635C1210.31 293.635 1207.87 294.759 1206.33 297.008C1204.79 299.258 1204.03 302.482 1204.03 306.683ZM1281.22 286.99C1285.48 286.99 1288.7 288.092 1290.85 290.295C1293.04 292.498 1294.13 296.033 1294.13 300.899V325.824H1286.03V302.345C1286.03 299.453 1285.47 297.272 1284.35 295.803C1283.22 294.335 1281.51 293.6 1279.22 293.6C1276.01 293.6 1273.69 294.633 1272.26 296.699C1270.86 298.741 1270.16 301.714 1270.16 305.615V325.824H1262.07V302.345C1262.07 300.417 1261.82 298.81 1261.32 297.525C1260.83 296.217 1260.09 295.241 1259.08 294.599C1258.07 293.933 1256.79 293.6 1255.26 293.6C1253.03 293.6 1251.25 294.105 1249.92 295.115C1248.61 296.125 1247.67 297.617 1247.1 299.591C1246.52 301.541 1246.24 303.94 1246.24 306.786V325.824H1238.15V287.713H1244.45L1245.58 292.843H1246.03C1246.81 291.512 1247.77 290.421 1248.92 289.572C1250.09 288.7 1251.39 288.057 1252.81 287.644C1254.24 287.208 1255.72 286.99 1257.25 286.99C1260.1 286.99 1262.5 287.495 1264.45 288.505C1266.4 289.492 1267.86 291.007 1268.82 293.049H1269.44C1270.63 290.984 1272.3 289.457 1274.43 288.47C1276.57 287.483 1278.83 286.99 1281.22 286.99ZM1322.15 286.99C1326.67 286.99 1330.3 288.643 1333.03 291.948C1335.79 295.253 1337.16 300.164 1337.16 306.683C1337.16 310.997 1336.52 314.635 1335.23 317.596C1333.97 320.534 1332.19 322.76 1329.9 324.275C1327.63 325.767 1324.98 326.513 1321.95 326.513C1320.02 326.513 1318.34 326.26 1316.92 325.755C1315.5 325.25 1314.28 324.596 1313.27 323.793C1312.26 322.967 1311.41 322.072 1310.72 321.108H1310.24C1310.35 322.026 1310.46 323.047 1310.55 324.172C1310.66 325.273 1310.72 326.283 1310.72 327.201V342.728H1302.6V287.713H1309.21L1310.34 292.98H1310.72C1311.43 291.902 1312.29 290.903 1313.3 289.985C1314.34 289.067 1315.58 288.344 1317.02 287.816C1318.49 287.265 1320.2 286.99 1322.15 286.99ZM1319.98 293.6C1317.76 293.6 1315.97 294.048 1314.61 294.943C1313.28 295.815 1312.31 297.135 1311.69 298.902C1311.09 300.669 1310.77 302.884 1310.72 305.546V306.683C1310.72 309.506 1311.01 311.904 1311.58 313.878C1312.18 315.829 1313.16 317.321 1314.51 318.354C1315.89 319.363 1317.75 319.868 1320.09 319.868C1322.06 319.868 1323.69 319.329 1324.98 318.25C1326.28 317.171 1327.26 315.634 1327.9 313.637C1328.54 311.64 1328.87 309.288 1328.87 306.579C1328.87 302.471 1328.13 299.281 1326.66 297.008C1325.22 294.736 1322.99 293.6 1319.98 293.6ZM1358.65 286.99C1363.47 286.99 1367.11 288.057 1369.56 290.192C1372.04 292.326 1373.28 295.654 1373.28 300.176V325.824H1367.53L1365.98 320.419H1365.71C1364.63 321.796 1363.51 322.932 1362.37 323.827C1361.22 324.723 1359.89 325.388 1358.37 325.824C1356.88 326.283 1355.06 326.513 1352.9 326.513C1350.63 326.513 1348.6 326.1 1346.81 325.273C1345.01 324.424 1343.6 323.139 1342.57 321.418C1341.54 319.696 1341.02 317.516 1341.02 314.876C1341.02 310.952 1342.48 308.002 1345.39 306.028C1348.33 304.055 1352.76 302.964 1358.68 302.758L1365.29 302.517V300.52C1365.29 297.881 1364.67 295.999 1363.43 294.874C1362.22 293.749 1360.5 293.187 1358.27 293.187C1356.36 293.187 1354.52 293.462 1352.73 294.013C1350.94 294.564 1349.19 295.241 1347.49 296.044L1344.88 290.329C1346.74 289.343 1348.85 288.539 1351.21 287.92C1353.6 287.3 1356.08 286.99 1358.65 286.99ZM1365.26 307.612L1360.34 307.784C1356.3 307.922 1353.46 308.611 1351.83 309.85C1350.2 311.089 1349.39 312.788 1349.39 314.945C1349.39 316.827 1349.95 318.204 1351.07 319.076C1352.2 319.926 1353.68 320.35 1355.52 320.35C1358.32 320.35 1360.63 319.558 1362.47 317.975C1364.33 316.368 1365.26 314.016 1365.26 310.917V307.612ZM1401.65 286.99C1405.94 286.99 1409.28 288.103 1411.67 290.329C1414.08 292.533 1415.28 296.079 1415.28 300.968V325.824H1407.19V302.482C1407.19 299.522 1406.59 297.307 1405.37 295.838C1404.15 294.346 1402.27 293.6 1399.72 293.6C1396.03 293.6 1393.46 294.736 1392.01 297.008C1390.59 299.281 1389.88 302.574 1389.88 306.889V325.824H1381.79V287.713H1388.09L1389.22 292.877H1389.67C1390.5 291.546 1391.52 290.456 1392.73 289.607C1393.97 288.734 1395.35 288.08 1396.87 287.644C1398.4 287.208 1400 286.99 1401.65 286.99ZM1418.04 287.713H1426.85L1434.67 309.471C1435.01 310.458 1435.32 311.434 1435.6 312.398C1435.9 313.339 1436.15 314.268 1436.36 315.186C1436.59 316.104 1436.77 317.022 1436.91 317.94H1437.11C1437.34 316.747 1437.66 315.416 1438.08 313.947C1438.51 312.455 1439 310.963 1439.52 309.471L1447.03 287.713H1455.74L1439.39 331.057C1438.45 333.536 1437.29 335.648 1435.91 337.392C1434.55 339.159 1432.95 340.49 1431.09 341.386C1429.23 342.304 1427.11 342.763 1424.72 342.763C1423.57 342.763 1422.57 342.694 1421.72 342.556C1420.88 342.441 1420.15 342.315 1419.56 342.177V335.705C1420.04 335.82 1420.65 335.923 1421.38 336.015C1422.12 336.107 1422.87 336.153 1423.65 336.153C1425.1 336.153 1426.35 335.866 1427.41 335.292C1428.46 334.718 1429.36 333.903 1430.09 332.847C1430.83 331.815 1431.43 330.633 1431.92 329.301L1433.26 325.721L1418.04 287.713Z" fill="white"/>
<path d="M717.725 286.99C722.545 286.99 726.183 288.057 728.639 290.192C731.118 292.326 732.357 295.654 732.357 300.176V325.824H726.608L725.058 320.419H724.783C723.704 321.796 722.591 322.932 721.444 323.827C720.296 324.723 718.965 325.388 717.45 325.824C715.958 326.283 714.133 326.513 711.976 326.513C709.704 326.513 707.673 326.1 705.882 325.273C704.092 324.424 702.681 323.139 701.648 321.418C700.615 319.696 700.098 317.516 700.098 314.876C700.098 310.952 701.556 308.002 704.471 306.028C707.409 304.055 711.838 302.964 717.76 302.758L724.37 302.517V300.52C724.37 297.881 723.75 295.999 722.511 294.874C721.294 293.749 719.573 293.187 717.347 293.187C715.442 293.187 713.594 293.462 711.804 294.013C710.014 294.564 708.269 295.241 706.571 296.044L703.954 290.329C705.813 289.343 707.925 288.539 710.289 287.92C712.676 287.3 715.155 286.99 717.725 286.99ZM724.335 307.612L719.412 307.784C715.373 307.922 712.538 308.611 710.909 309.85C709.279 311.089 708.464 312.788 708.464 314.945C708.464 316.827 709.027 318.204 710.151 319.076C711.276 319.926 712.756 320.35 714.592 320.35C717.393 320.35 719.711 319.558 721.547 317.975C723.406 316.368 724.335 314.016 724.335 310.917V307.612ZM760.728 286.99C765.02 286.99 768.36 288.103 770.747 290.329C773.156 292.533 774.361 296.079 774.361 300.968V325.824H766.271V302.482C766.271 299.522 765.663 297.307 764.446 295.838C763.23 294.346 761.348 293.6 758.8 293.6C755.105 293.6 752.534 294.736 751.088 297.008C749.665 299.281 748.954 302.574 748.954 306.889V325.824H740.863V287.713H747.164L748.3 292.877H748.747C749.574 291.546 750.595 290.456 751.811 289.607C753.051 288.734 754.428 288.08 755.943 287.644C757.48 287.208 759.076 286.99 760.728 286.99Z" fill="white"/>
</svg>
